<svg width="386" height="631" viewBox="0 0 386 631" fill="none" xmlns="http://www.w3.org/2000/svg">
<path d="M201.5 310.5L172 268.5L162.726 244L158.5 253.5L161 294H173.5V313L165 322L162.726 333.5L149.5 336.5L146 347.5L134.5 352L123 347.5L119 337.5L102 339.5V350.5L86.5 354L78 350.5L58.5 347.5L51.5 336.5V307.5L98.5 295.5V250.5L90.5 247.5L90 239L117.5 232.5L141.907 189L107 96.5L113 65L103.5 65.5L85.5 61.5V52.5L97.5 48.5V42.5L119.5 47L133.5 47.8167L147.524 64L149 103.5L207 259L211.5 268.5L220.5 250.5L217 229L206.5 183.75L196 138.5L187 107L173 87L148 61.5L136.5 47.9917L179.5 50.5L204 78L218 58.5L215.5 42.5V17H229L253 13L260 8L267 7L273 8L281.5 5.5V1L301.5 5.5V30.5L281.5 34.5V95H292V105.5L233.5 117.5L220.5 115.5L247.5 229V246L244.5 261.5L239.5 272.5L240 295.5L269.5 286L293.5 294V304.5L281.5 307.5L287 344L304.5 339.5L334.5 350.5V387H329.5L327.5 377L320 371L308.5 375L301.5 384.5L295 401.5L233.5 421L206.5 412.5L195.5 403.5V380L213.5 375L217 357L201.5 346V310.5Z" fill="#E4FAFF"/>
<path d="M1 548.5L15 514.5L39.5 495.5H65L106.5 511.5V531.5L98.5 536.5V559L140.5 575.5L264 536.5L281.5 511.5L299 501L320 498.5L370 517.5L385 548.5L380.5 581.5L357 619.5L327.5 625.5L272 604L258 581.5L240 587.5L229.5 581.5L211.5 587.5V605.5L146 630L98.5 612L66 619.5L20.5 602L2.5 580L1 548.5Z" fill="#E4FAFF"/>
<path d="M201.5 310.5L172 268.5L162.726 244L158.5 253.5L161 294H173.5V313L165 322L162.726 333.5L149.5 336.5L146 347.5L134.5 352L123 347.5L119 337.5L102 339.5V350.5L86.5 354L78 350.5L58.5 347.5L51.5 336.5V307.5L98.5 295.5V250.5L90.5 247.5L90 239L117.5 232.5L141.907 189L107 96.5L113 65L103.5 65.5L85.5 61.5V52.5L97.5 48.5V42.5L119.5 47L133.5 47.8167L147.524 64L149 103.5L207 259L211.5 268.5L220.5 250.5L217 229L206.5 183.75L196 138.5L187 107L173 87L148 61.5L136.5 47.9917L179.5 50.5L204 78L218 58.5L215.5 42.5V17H229L253 13L260 8L267 7L273 8L281.5 5.5V1L301.5 5.5V30.5L281.5 34.5V95H292V105.5L233.5 117.5L220.5 115.5L247.5 229V246L244.5 261.5L239.5 272.5L240 295.5L269.5 286L293.5 294V304.5L281.5 307.5L287 344L304.5 339.5L334.5 350.5V387H329.5L327.5 377L320 371L308.5 375L301.5 384.5L295 401.5L233.5 421L206.5 412.5L195.5 403.5V380L213.5 375L217 357L201.5 346V310.5Z" stroke="black" stroke-width="0.1"/>
<path d="M1 548.5L15 514.5L39.5 495.5H65L106.5 511.5V531.5L98.5 536.5V559L140.5 575.5L264 536.5L281.5 511.5L299 501L320 498.5L370 517.5L385 548.5L380.5 581.5L357 619.5L327.5 625.5L272 604L258 581.5L240 587.5L229.5 581.5L211.5 587.5V605.5L146 630L98.5 612L66 619.5L20.5 602L2.5 580L1 548.5Z" stroke="black" stroke-width="0.1"/>
</svg>
