<svg width="132" height="683" viewBox="0 0 132 683" fill="none" xmlns="http://www.w3.org/2000/svg">
<path d="M1 80.5002V95C1 95 13.0066 98.6205 20.5 99.5C33.8812 101.071 42.1126 101.018 55.5 99.5C63.1877 98.6286 75.5 94.5 75.5 94.5V80.5002C75.5 80.5002 68.25 78 66 77.5C63.75 77 55 75.5002 55 75.5002V57.5C55 57.5 64 48.7528 66 42.5C68 36.2472 68.7939 25.4998 67 20.5C65.2061 15.5002 60.5 9.03142 55 5.50024C49.5 1.96906 43 0.499871 38 0.5C33 0.500129 26.3402 1.97791 20.5 5.50024C14.2059 9.29632 10.3939 14.398 8.5 21.5C6.5 29 7.71994 36.3798 9 41.5C10.5 47.5 20.5 57.5 20.5 57.5V76C20.5 76 14.5 76.6579 10.5 77.5C6.5 78.3421 1 80.5002 1 80.5002Z" fill="#D6FFD8" stroke="#FFFCFC" stroke-width="0.1"/>
<path d="M29.5002 304V226C29.5002 226 34.5002 232 40 244C45.4998 256 47.2655 261.5 48.5 266.5C49.7345 271.5 53 286.5 53 290C53 293.5 54 368 54 368L29.5002 304Z" fill="#D6FFD8"/>
<path d="M31.5002 450.5V415L55.5002 449.5V474.5C55.5002 486.5 58.5 488.188 60 489.5C61.5 490.812 69 493.5 69 493.5V504C69 504 32.5001 505.5 27.5 504C22.4999 502.5 20.5004 498 19.5002 493.5C18.5 489 19.5001 477 19.5001 477C21.3817 466.912 23.5002 461.5 23.5002 461.5C23.5002 461.5 28.2223 453.311 31.5002 450.5Z" fill="#D6FFD8"/>
<path d="M29.5002 304V226C29.5002 226 34.5002 232 40 244C45.4998 256 47.2655 261.5 48.5 266.5C49.7345 271.5 53 286.5 53 290C53 293.5 54 368 54 368L29.5002 304Z" stroke="white" stroke-width="0.1"/>
<path d="M31.5002 450.5V415L55.5002 449.5V474.5C55.5002 486.5 58.5 488.188 60 489.5C61.5 490.812 69 493.5 69 493.5V504C69 504 32.5001 505.5 27.5 504C22.4999 502.5 20.5004 498 19.5002 493.5C18.5 489 19.5001 477 19.5001 477C21.3817 466.912 23.5002 461.5 23.5002 461.5C23.5002 461.5 28.2223 453.311 31.5002 450.5Z" stroke="white" stroke-width="0.1"/>
<path d="M15 596.5V590.5L52 599.5C52 599.5 54.5521 595.639 56.5 594C60.6832 590.48 67.6429 590.5 70.5 593C73.3571 595.5 75.5 598.5 75.5 598.5L131 582V620L117.5 635.5V660.5L56 682.5L17 673V618L0.5 611.5V602L15 596.5Z" fill="#D6FFD8" stroke="white" stroke-width="0.1"/>
</svg>
