{"accessors":[{"bufferView":0,"byteOffset":0,"componentType":5126,"count":54,"max":[-0.06122248979735355,0.016104671847506757,-0.00010206270613563873],"min":[-0.06762527054643905,0.009486218287560981,-0.005030326722194742],"type":"VEC3"},{"bufferView":0,"byteOffset":648,"componentType":5126,"count":54,"max":[-0.06994481660511233,0.021799398043593092,0.003241544565166495],"min":[-0.07420153766412738,0.017371697640829915,-0.000051804759277420235],"type":"VEC3"},{"bufferView":0,"byteOffset":1296,"componentType":5126,"count":52,"max":[-0.06879121689342162,0.023221540579748436,0.0019068424892612504],"min":[-0.07567707968759439,0.016584875383636365,-0.0005859812850968782],"type":"VEC3"},{"bufferView":0,"byteOffset":1920,"componentType":5126,"count":54,"max":[-0.0612859027874091,0.030870407671292073,0.004928302432446989],"min":[-0.06768812561974256,0.024253801309524817,8.329429462388127e-7],"type":"VEC3"},{"bufferView":0,"byteOffset":2568,"componentType":5126,"count":151,"max":[-0.0572737676299597,0.0359344381082275,0.00885990623641861],"min":[-0.0793735028364964,0.005691264874485828,-0.0036512517302751935],"type":"VEC3"},{"bufferView":0,"byteOffset":4380,"componentType":5126,"count":4,"max":[-0.06802573348705719,0.014184427535798402,0.00178643645413506],"min":[-0.0797372973095431,0.0066098538531308496,-0.00524658183690514],"type":"VEC3"},{"bufferView":0,"byteOffset":4428,"componentType":5126,"count":6,"max":[-0.0688045854352316,0.0370174703472856,0.00885990623641861],"min":[-0.0764751021858471,0.03182592261808,0.00345972264747591],"type":"VEC3"},{"bufferView":0,"byteOffset":4500,"componentType":5126,"count":37,"max":[-0.0751603350660932,0.025648920270911698,0.00519559344617167],"min":[-0.07717091668547685,0.023664304696412855,0.0018394509475139944],"type":"VEC3"},{"bufferView":0,"byteOffset":4944,"componentType":5126,"count":8,"max":[-0.0721056696058174,0.025888409291182,0.004663922285106956],"min":[-0.0756432494289772,0.0238472927408009,0.00168597823355528],"type":"VEC3"},{"bufferView":0,"byteOffset":5040,"componentType":5126,"count":19,"max":[-0.0711509627908119,0.026888690994193803,0.00466488165904862],"min":[-0.0725885839696545,0.024935427109469898,0.0016567614945817908],"type":"VEC3"},{"bufferView":0,"byteOffset":5268,"componentType":5126,"count":14,"max":[-0.07060691151536017,0.0312466542716993,0.00612757758732967],"min":[-0.0715248468274273,0.0291790271984849,0.0028817454117650502],"type":"VEC3"},{"bufferView":0,"byteOffset":5436,"componentType":5126,"count":8,"max":[-0.0706727992649693,0.0301320093551132,0.00568506828648636],"min":[-0.07163712674773799,0.0266957708606152,0.00212049963815431],"type":"VEC3"},{"bufferView":0,"byteOffset":5532,"componentType":5126,"count":20,"max":[-0.0741424068674585,0.03320402822909155,0.007455301462486281],"min":[-0.07615098635654781,0.0313918629271289,0.0044799058462406905],"type":"VEC3"},{"bufferView":0,"byteOffset":5772,"componentType":5126,"count":4,"max":[-0.0710419324735675,0.0330750197470938,0.00728322872624788],"min":[-0.074625321221989,0.0302936721145978,0.0033242547112164902],"type":"VEC3"},{"bufferView":0,"byteOffset":5820,"componentType":5126,"count":156,"max":[-0.057756681972903304,0.0370174703472856,0.00613878392118741],"min":[-0.0797372973095431,0.0066442470097397306,-0.006454574542121126],"type":"VEC3"},{"bufferView":0,"byteOffset":7692,"componentType":5126,"count":54,"max":[-0.06879121689342162,0.023539202445886715,0.0019068424892612504],"min":[-0.07583805172359705,0.016584875383636365,-0.0015204256416599452],"type":"VEC3"},{"bufferView":0,"byteOffset":8340,"componentType":5126,"count":4,"max":[-0.0756680719902909,0.0323448451086951,0.007297826538678441],"min":[-0.07716122516080161,0.024695938084656303,0.0023922705142427397],"type":"VEC3"},{"bufferView":0,"byteOffset":8388,"componentType":5126,"count":4,"max":[-0.0711509627908119,0.0276487529960363,0.00492382245049155],"min":[-0.07163712674773799,0.0259357088323668,0.00186155878888301],"type":"VEC3"},{"bufferView":0,"byteOffset":8436,"componentType":5126,"count":22,"max":[-0.0573369016787573,0.0346496772430831,0.006355977579174237],"min":[-0.06928749977811001,0.0274754561141478,0.000005312837105512221],"type":"VEC3"},{"bufferView":0,"byteOffset":8700,"componentType":5126,"count":4,"max":[-0.0572737676299597,0.0284284382495456,0.0028086356493743597],"min":[-0.0578198160216188,0.0127087966290489,-0.0050254495726229],"type":"VEC3"},{"bufferView":0,"byteOffset":8748,"componentType":5126,"count":20,"max":[-0.0572737676299597,0.0136617787646085,-0.00222212675987837],"min":[-0.0685086478298441,0.005691264874485828,-0.006454574542121126],"type":"VEC3"},{"bufferView":0,"byteOffset":8988,"componentType":5126,"count":261,"max":[-0.0573932006510415,0.067367530783344,0.0353070210205793],"min":[-0.08008480675041796,0.005816538608216791,-0.0275603383505854],"type":"VEC3"},{"bufferView":0,"byteOffset":12120,"componentType":5126,"count":24,"max":[-0.0833449640607144,0.012401520073083401,-0.00838707186064638],"min":[-0.085875929626854,-0.00676952947149989,-0.0185101143631878],"type":"VEC3"},{"bufferView":0,"byteOffset":12408,"componentType":5126,"count":12,"max":[-0.0820416936167459,-0.0057946637762914,-0.0075708883939820705],"min":[-0.0843990899362696,-0.0129053407709653,-0.0138513313150814],"type":"VEC3"},{"bufferView":0,"byteOffset":12552,"componentType":5126,"count":315,"max":[-0.051024758854977,0.0639810375645109,0.0564457391338564],"min":[-0.0843990899362696,-0.012959516042593032,-0.0143939670034064],"type":"VEC3"},{"bufferView":0,"byteOffset":16332,"componentType":5126,"count":25,"max":[-0.0787851495580868,0.0152530496611392,-0.008961046953721491],"min":[-0.08751689820380101,-0.0129053407709653,-0.028669725278079098],"type":"VEC3"},{"bufferView":0,"byteOffset":16632,"componentType":5126,"count":124,"max":[-0.040472486020078496,0.0767666756537686,0.0638889459724499],"min":[-0.08751689820380101,-0.012959516042593032,-0.009232248820450178],"type":"VEC3"},{"bufferView":0,"byteOffset":18120,"componentType":5126,"count":28,"max":[-0.07977103769536091,0.009176785892299909,-0.0108913500221702],"min":[-0.0831802059466724,-0.00903134439448567,-0.0223362039790054],"type":"VEC3"},{"bufferView":0,"byteOffset":18456,"componentType":5126,"count":18,"max":[-0.0798194424573919,0.0121825798913878,-0.0075708883939820705],"min":[-0.0821407009521531,-0.0069541859723533305,-0.0179543533004972],"type":"VEC3"},{"bufferView":0,"byteOffset":18672,"componentType":5126,"count":126,"max":[-0.04248231992650353,0.07788415071272095,0.0638889459724499],"min":[-0.06327972763831735,0.0602862991321498,0.034534058413397],"type":"VEC3"},{"bufferView":0,"byteOffset":20184,"componentType":5126,"count":128,"max":[-0.03964163019512584,0.07788415071272095,0.0638889459724499],"min":[-0.08324832636975908,0.0148432721538899,-0.028669725278079098],"type":"VEC3"},{"bufferView":0,"byteOffset":21720,"componentType":5126,"count":247,"max":[-0.060692099500457404,0.068755597513234,0.035037830158569455],"min":[-0.08385982074165016,0.00617790685787311,-0.028669725278079098],"type":"VEC3"},{"bufferView":0,"byteOffset":24684,"componentType":5126,"count":30,"max":[-0.08330067572942611,0.009063197189302971,-0.011258879911990701],"min":[-0.0864564790576382,-0.008375978283728021,-0.0225527959438725],"type":"VEC3"},{"bufferView":0,"byteOffset":25044,"componentType":5126,"count":111,"max":[-0.03964163019512584,0.07481501588410626,0.0627743359186795],"min":[-0.0582124758539045,0.0596033320370899,0.0333463410720468],"type":"VEC3"},{"bufferView":0,"byteOffset":26376,"componentType":5126,"count":19,"max":[-0.0858303445724233,-0.00629287439926367,-0.00838707186064638],"min":[-0.08751689820380101,-0.0119530000393979,-0.013496127980745402],"type":"VEC3"},{"bufferView":0,"byteOffset":26604,"componentType":5126,"count":324,"max":[-0.0546483681270197,0.063763597099438,0.0571657007657117],"min":[-0.08751689820380101,-0.0119530000393979,-0.0146346652864898],"type":"VEC3"},{"bufferView":1,"byteOffset":0,"componentType":5126,"count":54,"type":"VEC3"},{"bufferView":1,"byteOffset":648,"componentType":5126,"count":54,"type":"VEC3"},{"bufferView":1,"byteOffset":1296,"componentType":5126,"count":52,"type":"VEC3"},{"bufferView":1,"byteOffset":1920,"componentType":5126,"count":54,"type":"VEC3"},{"bufferView":1,"byteOffset":2568,"componentType":5126,"count":151,"type":"VEC3"},{"bufferView":1,"byteOffset":4380,"componentType":5126,"count":4,"type":"VEC3"},{"bufferView":1,"byteOffset":4428,"componentType":5126,"count":6,"type":"VEC3"},{"bufferView":1,"byteOffset":4500,"componentType":5126,"count":37,"type":"VEC3"},{"bufferView":1,"byteOffset":4944,"componentType":5126,"count":8,"type":"VEC3"},{"bufferView":1,"byteOffset":5040,"componentType":5126,"count":19,"type":"VEC3"},{"bufferView":1,"byteOffset":5268,"componentType":5126,"count":14,"type":"VEC3"},{"bufferView":1,"byteOffset":5436,"componentType":5126,"count":8,"type":"VEC3"},{"bufferView":1,"byteOffset":5532,"componentType":5126,"count":20,"type":"VEC3"},{"bufferView":1,"byteOffset":5772,"componentType":5126,"count":4,"type":"VEC3"},{"bufferView":1,"byteOffset":5820,"componentType":5126,"count":156,"type":"VEC3"},{"bufferView":1,"byteOffset":7692,"componentType":5126,"count":54,"type":"VEC3"},{"bufferView":1,"byteOffset":8340,"componentType":5126,"count":4,"type":"VEC3"},{"bufferView":1,"byteOffset":8388,"componentType":5126,"count":4,"type":"VEC3"},{"bufferView":1,"byteOffset":8436,"componentType":5126,"count":22,"type":"VEC3"},{"bufferView":1,"byteOffset":8700,"componentType":5126,"count":4,"type":"VEC3"},{"bufferView":1,"byteOffset":8748,"componentType":5126,"count":20,"type":"VEC3"},{"bufferView":1,"byteOffset":8988,"componentType":5126,"count":261,"type":"VEC3"},{"bufferView":1,"byteOffset":12120,"componentType":5126,"count":24,"type":"VEC3"},{"bufferView":1,"byteOffset":12408,"componentType":5126,"count":12,"type":"VEC3"},{"bufferView":1,"byteOffset":12552,"componentType":5126,"count":315,"type":"VEC3"},{"bufferView":1,"byteOffset":16332,"componentType":5126,"count":25,"type":"VEC3"},{"bufferView":1,"byteOffset":16632,"componentType":5126,"count":124,"type":"VEC3"},{"bufferView":1,"byteOffset":18120,"componentType":5126,"count":28,"type":"VEC3"},{"bufferView":1,"byteOffset":18456,"componentType":5126,"count":18,"type":"VEC3"},{"bufferView":1,"byteOffset":18672,"componentType":5126,"count":126,"type":"VEC3"},{"bufferView":1,"byteOffset":20184,"componentType":5126,"count":128,"type":"VEC3"},{"bufferView":1,"byteOffset":21720,"componentType":5126,"count":247,"type":"VEC3"},{"bufferView":1,"byteOffset":24684,"componentType":5126,"count":30,"type":"VEC3"},{"bufferView":1,"byteOffset":25044,"componentType":5126,"count":111,"type":"VEC3"},{"bufferView":1,"byteOffset":26376,"componentType":5126,"count":19,"type":"VEC3"},{"bufferView":1,"byteOffset":26604,"componentType":5126,"count":324,"type":"VEC3"},{"bufferView":2,"byteOffset":0,"componentType":5123,"count":156,"type":"SCALAR"},{"bufferView":2,"byteOffset":312,"componentType":5123,"count":156,"type":"SCALAR"},{"bufferView":2,"byteOffset":624,"componentType":5123,"count":156,"type":"SCALAR"},{"bufferView":2,"byteOffset":936,"componentType":5123,"count":156,"type":"SCALAR"},{"bufferView":2,"byteOffset":1248,"componentType":5123,"count":471,"type":"SCALAR"},{"bufferView":2,"byteOffset":2192,"componentType":5123,"count":6,"type":"SCALAR"},{"bufferView":2,"byteOffset":2204,"componentType":5123,"count":12,"type":"SCALAR"},{"bufferView":2,"byteOffset":2228,"componentType":5123,"count":123,"type":"SCALAR"},{"bufferView":2,"byteOffset":2476,"componentType":5123,"count":18,"type":"SCALAR"},{"bufferView":2,"byteOffset":2512,"componentType":5123,"count":57,"type":"SCALAR"},{"bufferView":2,"byteOffset":2628,"componentType":5123,"count":36,"type":"SCALAR"},{"bufferView":2,"byteOffset":2700,"componentType":5123,"count":18,"type":"SCALAR"},{"bufferView":2,"byteOffset":2736,"componentType":5123,"count":54,"type":"SCALAR"},{"bufferView":2,"byteOffset":2844,"componentType":5123,"count":6,"type":"SCALAR"},{"bufferView":2,"byteOffset":2856,"componentType":5123,"count":486,"type":"SCALAR"},{"bufferView":2,"byteOffset":3828,"componentType":5123,"count":156,"type":"SCALAR"},{"bufferView":2,"byteOffset":4140,"componentType":5123,"count":6,"type":"SCALAR"},{"bufferView":2,"byteOffset":4152,"componentType":5123,"count":6,"type":"SCALAR"},{"bufferView":2,"byteOffset":4164,"componentType":5123,"count":60,"type":"SCALAR"},{"bufferView":2,"byteOffset":4284,"componentType":5123,"count":6,"type":"SCALAR"},{"bufferView":2,"byteOffset":4296,"componentType":5123,"count":54,"type":"SCALAR"},{"bufferView":2,"byteOffset":4404,"componentType":5123,"count":1401,"type":"SCALAR"},{"bufferView":2,"byteOffset":7208,"componentType":5123,"count":84,"type":"SCALAR"},{"bufferView":2,"byteOffset":7376,"componentType":5123,"count":39,"type":"SCALAR"},{"bufferView":2,"byteOffset":7456,"componentType":5123,"count":1704,"type":"SCALAR"},{"bufferView":2,"byteOffset":10864,"componentType":5123,"count":81,"type":"SCALAR"},{"bufferView":2,"byteOffset":11028,"componentType":5123,"count":597,"type":"SCALAR"},{"bufferView":2,"byteOffset":12224,"componentType":5123,"count":132,"type":"SCALAR"},{"bufferView":2,"byteOffset":12488,"componentType":5123,"count":69,"type":"SCALAR"},{"bufferView":2,"byteOffset":12628,"componentType":5123,"count":660,"type":"SCALAR"},{"bufferView":2,"byteOffset":13948,"componentType":5123,"count":573,"type":"SCALAR"},{"bufferView":2,"byteOffset":15096,"componentType":5123,"count":1293,"type":"SCALAR"},{"bufferView":2,"byteOffset":17684,"componentType":5123,"count":138,"type":"SCALAR"},{"bufferView":2,"byteOffset":17960,"componentType":5123,"count":567,"type":"SCALAR"},{"bufferView":2,"byteOffset":19096,"componentType":5123,"count":72,"type":"SCALAR"},{"bufferView":2,"byteOffset":19240,"componentType":5123,"count":1749,"type":"SCALAR"}],"asset":{"generator":"Open CASCADE Technology 7.8 [dev.opencascade.org]","version":"2.0"},"bufferViews":[{"buffer":0,"byteLength":30492,"byteOffset":0,"byteStride":12,"target":34962},{"buffer":0,"byteLength":30492,"byteOffset":30492,"byteStride":12,"target":34962},{"buffer":0,"byteLength":22740,"byteOffset":60984,"target":34963}],"buffers":[{"byteLength":83724,"uri":"Upper_Cheek.bin"}],"materials":[{"name":"mat_0","pbrMetallicRoughness":{"baseColorFactor":[0.8148465752601624,0.7083758115768433,0.6239604353904724,1.0]},"doubleSided":true}],"meshes":[{"name":"Upper Cheek v1","primitives":[{"attributes":{"NORMAL":36,"POSITION":0},"indices":72,"material":0,"mode":4},{"attributes":{"NORMAL":37,"POSITION":1},"indices":73,"material":0,"mode":4},{"attributes":{"NORMAL":38,"POSITION":2},"indices":74,"material":0,"mode":4},{"attributes":{"NORMAL":39,"POSITION":3},"indices":75,"material":0,"mode":4},{"attributes":{"NORMAL":40,"POSITION":4},"indices":76,"material":0,"mode":4},{"attributes":{"NORMAL":41,"POSITION":5},"indices":77,"material":0,"mode":4},{"attributes":{"NORMAL":42,"POSITION":6},"indices":78,"material":0,"mode":4},{"attributes":{"NORMAL":43,"POSITION":7},"indices":79,"material":0,"mode":4},{"attributes":{"NORMAL":44,"POSITION":8},"indices":80,"material":0,"mode":4},{"attributes":{"NORMAL":45,"POSITION":9},"indices":81,"material":0,"mode":4},{"attributes":{"NORMAL":46,"POSITION":10},"indices":82,"material":0,"mode":4},{"attributes":{"NORMAL":47,"POSITION":11},"indices":83,"material":0,"mode":4},{"attributes":{"NORMAL":48,"POSITION":12},"indices":84,"material":0,"mode":4},{"attributes":{"NORMAL":49,"POSITION":13},"indices":85,"material":0,"mode":4},{"attributes":{"NORMAL":50,"POSITION":14},"indices":86,"material":0,"mode":4},{"attributes":{"NORMAL":51,"POSITION":15},"indices":87,"material":0,"mode":4},{"attributes":{"NORMAL":52,"POSITION":16},"indices":88,"material":0,"mode":4},{"attributes":{"NORMAL":53,"POSITION":17},"indices":89,"material":0,"mode":4},{"attributes":{"NORMAL":54,"POSITION":18},"indices":90,"material":0,"mode":4},{"attributes":{"NORMAL":55,"POSITION":19},"indices":91,"material":0,"mode":4},{"attributes":{"NORMAL":56,"POSITION":20},"indices":92,"material":0,"mode":4},{"attributes":{"NORMAL":57,"POSITION":21},"indices":93,"material":0,"mode":4},{"attributes":{"NORMAL":58,"POSITION":22},"indices":94,"material":0,"mode":4},{"attributes":{"NORMAL":59,"POSITION":23},"indices":95,"material":0,"mode":4},{"attributes":{"NORMAL":60,"POSITION":24},"indices":96,"material":0,"mode":4},{"attributes":{"NORMAL":61,"POSITION":25},"indices":97,"material":0,"mode":4},{"attributes":{"NORMAL":62,"POSITION":26},"indices":98,"material":0,"mode":4},{"attributes":{"NORMAL":63,"POSITION":27},"indices":99,"material":0,"mode":4},{"attributes":{"NORMAL":64,"POSITION":28},"indices":100,"material":0,"mode":4},{"attributes":{"NORMAL":65,"POSITION":29},"indices":101,"material":0,"mode":4},{"attributes":{"NORMAL":66,"POSITION":30},"indices":102,"material":0,"mode":4},{"attributes":{"NORMAL":67,"POSITION":31},"indices":103,"material":0,"mode":4},{"attributes":{"NORMAL":68,"POSITION":32},"indices":104,"material":0,"mode":4},{"attributes":{"NORMAL":69,"POSITION":33},"indices":105,"material":0,"mode":4},{"attributes":{"NORMAL":70,"POSITION":34},"indices":106,"material":0,"mode":4},{"attributes":{"NORMAL":71,"POSITION":35},"indices":107,"material":0,"mode":4}]}],"nodes":[{"mesh":0,"name":"Upper Cheek v1"}],"scene":0,"scenes":[{"nodes":[0]}]}