<?xml version="1.0" encoding="UTF-8" standalone="no"?>
<svg width="1400" height="900" viewBox="0 0 1400 900" fill="none" xmlns="http://www.w3.org/2000/svg">
  <!-- Background with grid pattern -->
  <rect width="1400" height="900" fill="#D2D2D2"/>
  
  <!-- Grid lines vertical -->
  <g stroke="rgba(37, 40, 59, 0.13)" stroke-width="1">
    <line x1="100" y1="0" x2="100" y2="900"/>
    <line x1="200" y1="0" x2="200" y2="900"/>
    <line x1="300" y1="0" x2="300" y2="900"/>
    <line x1="400" y1="0" x2="400" y2="900"/>
    <line x1="500" y1="0" x2="500" y2="900"/>
    <line x1="600" y1="0" x2="600" y2="900"/>
    <line x1="700" y1="0" x2="700" y2="900"/>
    <line x1="800" y1="0" x2="800" y2="900"/>
    <line x1="900" y1="0" x2="900" y2="900"/>
    <line x1="1000" y1="0" x2="1000" y2="900"/>
    <line x1="1100" y1="0" x2="1100" y2="900"/>
    <line x1="1200" y1="0" x2="1200" y2="900"/>
    <line x1="1300" y1="0" x2="1300" y2="900"/>
  </g>
  
  <!-- Grid lines horizontal -->
  <g stroke="rgba(37, 40, 59, 0.13)" stroke-width="1">
    <line x1="0" y1="100" x2="1400" y2="100"/>
    <line x1="0" y1="200" x2="1400" y2="200"/>
    <line x1="0" y1="300" x2="1400" y2="300"/>
    <line x1="0" y1="400" x2="1400" y2="400"/>
    <line x1="0" y1="500" x2="1400" y2="500"/>
    <line x1="0" y1="600" x2="1400" y2="600"/>
    <line x1="0" y1="700" x2="1400" y2="700"/>
    <line x1="0" y1="800" x2="1400" y2="800"/>
  </g>
  
  <!-- Sanskrit text with outline effect -->
  <!-- We'll create this as a path to avoid font dependency issues -->
  <g transform="translate(700, 300)">
    <!-- This is a simplified representation - Figma will need to replace with actual text -->
    <path d="M-400 0 L400 0" stroke="#909dab" stroke-width="5" fill="none"/>
    <text x="0" y="0" font-family="Arial" font-size="192" text-anchor="middle" fill="#909dab" letter-spacing="0.1em" dominant-baseline="middle">Sanskrit Text</text>
    <text x="0" y="0" font-family="Arial" font-size="192" text-anchor="middle" fill="transparent" stroke="#FFFFFF" stroke-width="1" letter-spacing="0.1em" dominant-baseline="middle">Sanskrit Text</text>
  </g>
  
  <!-- Author section -->
  <g transform="translate(1060, 700)">
    <text x="0" y="0" font-family="Arial" font-size="48" text-anchor="end" font-weight="bold">LUN DEV</text>
    <text x="0" y="60" font-family="Arial" font-size="16" text-anchor="end" font-weight="bold">Web Design</text>
    <text x="0" y="90" font-family="Arial" font-size="16" text-anchor="end">Subscribe to the channel to</text>
    <text x="0" y="115" font-family="Arial" font-size="16" text-anchor="end">watch many interesting videos</text>
  </g>
  
  <!-- Instructions text for Figma users -->
  <g transform="translate(700, 50)">
    <text x="0" y="0" font-family="Arial" font-size="14" text-anchor="middle" fill="#333333">
      Note: Replace "Sanskrit Text" with the actual Sanskrit text: 𑖌𑖼𑖦𑖜𑖰𑖢𑖟𑖿𑖦𑖸𑖮𑖳𑖽
    </text>
    <text x="0" y="20" font-family="Arial" font-size="14" text-anchor="middle" fill="#333333">
      Install Murty Sanskrit font in Figma for correct display
    </text>
  </g>
</svg> 