<?xml version="1.0" encoding="UTF-8" standalone="no"?>
<svg width="1400" height="900" viewBox="0 0 1400 900" fill="none" xmlns="http://www.w3.org/2000/svg">
  <!-- Background -->
  <rect width="1400" height="900" fill="#D2D2D2"/>
  
  <!-- Grid pattern -->
  <g stroke="rgba(37, 40, 59, 0.13)" stroke-width="1">
    <!-- Vertical grid lines -->
    <line x1="100" y1="0" x2="100" y2="900"/>
    <line x1="200" y1="0" x2="200" y2="900"/>
    <line x1="300" y1="0" x2="300" y2="900"/>
    <line x1="400" y1="0" x2="400" y2="900"/>
    <line x1="500" y1="0" x2="500" y2="900"/>
    <line x1="600" y1="0" x2="600" y2="900"/>
    <line x1="700" y1="0" x2="700" y2="900"/>
    <line x1="800" y1="0" x2="800" y2="900"/>
    <line x1="900" y1="0" x2="900" y2="900"/>
    <line x1="1000" y1="0" x2="1000" y2="900"/>
    <line x1="1100" y1="0" x2="1100" y2="900"/>
    <line x1="1200" y1="0" x2="1200" y2="900"/>
    <line x1="1300" y1="0" x2="1300" y2="900"/>
    
    <!-- Horizontal grid lines -->
    <line x1="0" y1="100" x2="1400" y2="100"/>
    <line x1="0" y1="200" x2="1400" y2="200"/>
    <line x1="0" y1="300" x2="1400" y2="300"/>
    <line x1="0" y1="400" x2="1400" y2="400"/>
    <line x1="0" y1="500" x2="1400" y2="500"/>
    <line x1="0" y1="600" x2="1400" y2="600"/>
    <line x1="0" y1="700" x2="1400" y2="700"/>
    <line x1="0" y1="800" x2="1400" y2="800"/>
  </g>
  
  <!-- 3D Carousel visualization -->
  <g transform="translate(700, 200)">
    <!-- Carousel base -->
    <ellipse cx="0" cy="0" rx="220" ry="55" fill="rgba(37, 40, 59, 0.05)" stroke="rgba(37, 40, 59, 0.2)" stroke-width="1"/>
    
    <!-- Dragon image cards (represented as rectangles) -->
    <g transform="rotate(-16)">
      <!-- Front image -->
      <rect x="-100" y="-195" width="200" height="250" rx="5" fill="#4A5568" opacity="0.9"/>
      
      <!-- Side images -->
      <rect x="173" y="-175" width="180" height="225" rx="5" fill="#4A5568" opacity="0.7" transform="rotate(36)"/>
      <rect x="260" y="30" width="160" height="200" rx="5" fill="#4A5568" opacity="0.5" transform="rotate(72)"/>
      <rect x="205" y="185" width="140" height="175" rx="5" fill="#4A5568" opacity="0.3" transform="rotate(108)"/>
      <rect x="30" y="260" width="120" height="150" rx="5" fill="#4A5568" opacity="0.2" transform="rotate(144)"/>
      <rect x="-140" y="225" width="120" height="150" rx="5" fill="#4A5568" opacity="0.2" transform="rotate(180)"/>
      <rect x="-225" y="105" width="140" height="175" rx="5" fill="#4A5568" opacity="0.3" transform="rotate(216)"/>
      <rect x="-260" y="-30" width="160" height="200" rx="5" fill="#4A5568" opacity="0.5" transform="rotate(252)"/>
      <rect x="-225" y="-140" width="180" height="225" rx="5" fill="#4A5568" opacity="0.7" transform="rotate(288)"/>
      <rect x="-105" y="-195" width="200" height="250" rx="5" fill="#4A5568" opacity="0.8" transform="rotate(324)"/>
    </g>
  </g>
  
  <!-- Text section with path representations -->
  <g transform="translate(700, 450)">
    <!-- Sanskrit text representation (Using a stylized line for visualization) -->
    <g transform="translate(0, -150)">
      <!-- Text outline simulation -->
      <path d="M-350 0 C-300 -40, -250 40, -200 0 C-150 -40, -100 40, -50 0 C0 -40, 50 40, 100 0 C150 -40, 200 40, 250 0 C300 -40, 350 40, 400 0" 
            stroke="#FFFFFF" stroke-width="3" fill="transparent"/>
      
      <!-- Text fill simulation -->
      <path d="M-350 0 C-300 -40, -250 40, -200 0 C-150 -40, -100 40, -50 0 C0 -40, 50 40, 100 0 C150 -40, 200 40, 250 0 C300 -40, 350 40, 400 0" 
            stroke="#909dab" stroke-width="2" fill="transparent"/>
    </g>
    
    <!-- Author section -->
    <g transform="translate(360, 250)">
      <!-- LUN DEV -->
      <path d="M-150 0 L-120 0 L-120 -40 L-90 0 L-60 -40 L-60 0 L-30 0 M0 0 L0 -40 L30 -40 L30 0 L0 0 M60 0 L60 -40 L90 -40 L120 0" 
            stroke="#000000" stroke-width="3" fill="transparent"/>
      
      <!-- Web Design (simplified) -->
      <path d="M-120 30 L-100 20 L-80 30 L-60 20 L-40 30 M-20 20 L-20 40 L0 20 L0 40 M20 30 L40 30" 
            stroke="#000000" stroke-width="1.5" fill="transparent"/>
      
      <!-- Subscribe text (simplified) -->
      <path d="M-150 60 C-120 50, -90 70, -60 60 C-30 50, 0 70, 30 60 C60 50, 90 70, 120 60" 
            stroke="#000000" stroke-width="1" fill="transparent"/>
    </g>
  </g>
  
  <!-- Background decorative element (model representation) -->
  <g transform="translate(700, 750)">
    <ellipse cx="0" cy="0" rx="400" ry="70" fill="rgba(37, 40, 59, 0.1)" opacity="0.5"/>
    <rect x="-40" y="-220" width="80" height="220" rx="40" ry="40" fill="rgba(37, 40, 59, 0.15)"/>
  </g>
  
  <!-- Instructions -->
  <g transform="translate(700, 50)">
    <rect x="-400" y="-25" width="800" height="50" rx="5" ry="5" fill="rgba(255, 255, 255, 0.7)"/>
    <path d="M-350 0 L-330 0 M-310 0 L-290 0 M-270 0 L-250 0 M-230 -10 L-230 10 M-210 -10 L-210 10 M-190 0 L-170 0 M-150 0 L-130 0 M-110 -10 L-110 10 M-90 0 L-70 0 M-50 -10 L-50 10 M-30 0 L-10 0 M10 -10 L10 10 M30 0 L50 0 M70 -10 L70 10 M90 0 L110 0 M130 -10 L130 10 M150 0 L170 0 M190 -10 L190 10 M210 0 L230 0 M250 0 L270 0 M290 -10 L290 10 M310 0 L330 0 M350 -10 L350 10" 
          stroke="#333333" stroke-width="1" fill="transparent"/>
  </g>
</svg> 