{"accessors":[{"bufferView":0,"byteOffset":0,"componentType":5126,"count":54,"max":[-0.05287609259187615,0.031195705013390942,0.053624625439081745],"min":[-0.05924698933875634,0.0245668961978323,0.04868783219849975],"type":"VEC3"},{"bufferView":0,"byteOffset":648,"componentType":5126,"count":54,"max":[-0.04628571103047074,0.023298668566202795,0.04864010594633923],"min":[-0.05053877554949026,0.01888372651222461,0.04535022616436756],"type":"VEC3"},{"bufferView":0,"byteOffset":1296,"componentType":5126,"count":52,"max":[-0.04480834045584406,0.024091869425838904,0.04917601886094068],"min":[-0.05169420322972434,0.017455204220391297,0.046683195121512124],"type":"VEC3"},{"bufferView":0,"byteOffset":1920,"componentType":5126,"count":54,"max":[-0.0527960717746441,0.01642952107120067,0.04859208665504141],"min":[-0.059200740494677884,0.009799761021989237,0.0436588461854483],"type":"VEC3"},{"bufferView":0,"byteOffset":2568,"componentType":5126,"count":150,"max":[-0.04216859437434785,0.0359572657333352,0.0562437222048761],"min":[-0.0709678079757433,0.0060076948422788734,0.045037848566803894],"type":"VEC3"},{"bufferView":0,"byteOffset":4368,"componentType":5126,"count":4,"max":[-0.0596002255196693,0.014221863546382201,0.0504854718579191],"min":[-0.0709678079757433,0.006929029845002411,0.043445066796431904],"type":"VEC3"},{"bufferView":0,"byteOffset":4416,"componentType":5126,"count":4,"max":[-0.0568556019208953,0.0369102478400388,0.0562437222048761],"min":[-0.06082189599928121,0.0339030973433459,0.052142025927958205],"type":"VEC3"},{"bufferView":0,"byteOffset":4464,"componentType":5126,"count":8,"max":[-0.0603389816658555,0.0369102478400388,0.0562437222048761],"min":[-0.0650630579966134,0.026434256433388502,0.0533781773941733],"type":"VEC3"},{"bufferView":0,"byteOffset":4560,"componentType":5126,"count":15,"max":[-0.0459448089562624,0.0162267130063167,0.0467327984973896],"min":[-0.0494731684900122,0.011656473087430699,0.0432244220492668],"type":"VEC3"},{"bufferView":0,"byteOffset":4740,"componentType":5126,"count":22,"max":[-0.04216859437434785,0.0268305809676765,0.0503453650833637],"min":[-0.0464730604388475,0.0152737309595054,0.043929475699994],"type":"VEC3"},{"bufferView":0,"byteOffset":5004,"componentType":5126,"count":15,"max":[-0.04599014610817521,0.0301024775688301,0.0519873351148687],"min":[-0.0495479601658543,0.025877598890680902,0.0475420422087715],"type":"VEC3"},{"bufferView":0,"byteOffset":5184,"componentType":5126,"count":16,"max":[-0.049065045837976204,0.03499485098248122,0.054945348751125604],"min":[-0.057338516254319405,0.029149495486643702,0.049184012282414],"type":"VEC3"},{"bufferView":0,"byteOffset":5376,"componentType":5126,"count":150,"max":[-0.04265150869697867,0.0369102478400388,0.053440399381715],"min":[-0.07083401633454331,0.006960676949309745,0.04223452574392927],"type":"VEC3"},{"bufferView":0,"byteOffset":7176,"componentType":5126,"count":18,"max":[-0.0489902541504522,0.0126094551652241,0.0462483896195992],"min":[-0.0600831398530934,0.0060076948422788734,0.04223452574392927],"type":"VEC3"},{"bufferView":0,"byteOffset":7392,"componentType":5126,"count":54,"max":[-0.04464736901409085,0.024091869425838904,0.05011045980717918],"min":[-0.05169420322972434,0.017137543532025692,0.046683195121512124],"type":"VEC3"},{"bufferView":0,"byteOffset":8040,"componentType":5126,"count":24,"max":[-0.06270942743830091,0.024343223695483945,0.052583693869759],"min":[-0.065080894402611,0.0224981328938778,0.0492733483826751],"type":"VEC3"},{"bufferView":0,"byteOffset":8328,"componentType":5126,"count":4,"max":[-0.0645979800691869,0.023733252154430003,0.052497914449296405],"min":[-0.0685424379100017,0.0151417550356318,0.047694201551026605],"type":"VEC3"},{"bufferView":0,"byteOffset":8376,"componentType":5126,"count":14,"max":[-0.0677069662248371,0.0160947371423278,0.0504975243741939],"min":[-0.06862667464000613,0.0139883404073958,0.0472413680456134],"type":"VEC3"},{"bufferView":0,"byteOffset":8544,"componentType":5126,"count":4,"max":[-0.0642039321704695,0.0149413225140919,0.050044690868780696],"min":[-0.0681898805582612,0.0119225817621351,0.045935668840811406],"type":"VEC3"},{"bufferView":0,"byteOffset":8592,"componentType":5126,"count":20,"max":[-0.0626679368602297,0.0137468413456445,0.0487705819229661],"min":[-0.0646868465038936,0.01179135466673842,0.04576309838721976],"type":"VEC3"},{"bufferView":0,"byteOffset":8832,"componentType":5126,"count":4,"max":[-0.0626679368602297,0.0234511150012522,0.0520766712076427],"min":[-0.06319234175652651,0.012793859238274299,0.0459672590980105],"type":"VEC3"},{"bufferView":0,"byteOffset":8880,"componentType":5126,"count":81,"max":[-0.07806068898993755,0.0080162754570676,0.034341460521633005],"min":[-0.0812373391650245,-0.0074462999259556,0.016626788138405003],"type":"VEC3"},{"bufferView":0,"byteOffset":9852,"componentType":5126,"count":375,"max":[-0.0418192506395216,0.06142378205570401,0.09983939015753791],"min":[-0.0797796418432796,-0.0074462999259556,0.030920627063969502],"type":"VEC3"},{"bufferView":0,"byteOffset":14352,"componentType":5126,"count":316,"max":[-0.043594942944227104,0.0763547220943357,0.0866505105147594],"min":[-0.0786061118810598,0.00546645048906418,0.024915095370197603],"type":"VEC3"},{"bufferView":0,"byteOffset":18144,"componentType":5126,"count":119,"max":[-0.0396752093905547,0.0509370829572634,0.09983939015753791],"min":[-0.0812373391650245,-0.008109808544166215,0.0160536808447852],"type":"VEC3"},{"bufferView":0,"byteOffset":19572,"componentType":5126,"count":255,"max":[-0.0396752093905547,0.059753236045360404,0.0971907654986979],"min":[-0.07681382613904517,-0.008109808544166215,0.024131092010041627],"type":"VEC3"},{"bufferView":0,"byteOffset":22632,"componentType":5126,"count":357,"max":[-0.0406458599643191,0.0740187562687683,0.0855413493644582],"min":[-0.07669118841848051,-0.00221885842898241,0.0237505273414258],"type":"VEC3"},{"bufferView":0,"byteOffset":26916,"componentType":5126,"count":88,"max":[-0.0408475096556303,0.0763547220943357,0.06428311661075879],"min":[-0.0812373391650245,-0.00039237460297159097,0.0160536808447852],"type":"VEC3"},{"bufferView":0,"byteOffset":27972,"componentType":5126,"count":106,"max":[-0.0753591141742293,0.0066451947321992,0.0291338457776413],"min":[-0.0776894893918573,-0.00801011052551821,0.0160536808447852],"type":"VEC3"},{"bufferView":0,"byteOffset":29244,"componentType":5126,"count":35,"max":[-0.0396752093905547,0.0763547220943357,0.09983939015753791],"min":[-0.044266424296967866,0.0507117307924248,0.0634601029649526],"type":"VEC3"},{"bufferView":1,"byteOffset":0,"componentType":5126,"count":54,"type":"VEC3"},{"bufferView":1,"byteOffset":648,"componentType":5126,"count":54,"type":"VEC3"},{"bufferView":1,"byteOffset":1296,"componentType":5126,"count":52,"type":"VEC3"},{"bufferView":1,"byteOffset":1920,"componentType":5126,"count":54,"type":"VEC3"},{"bufferView":1,"byteOffset":2568,"componentType":5126,"count":150,"type":"VEC3"},{"bufferView":1,"byteOffset":4368,"componentType":5126,"count":4,"type":"VEC3"},{"bufferView":1,"byteOffset":4416,"componentType":5126,"count":4,"type":"VEC3"},{"bufferView":1,"byteOffset":4464,"componentType":5126,"count":8,"type":"VEC3"},{"bufferView":1,"byteOffset":4560,"componentType":5126,"count":15,"type":"VEC3"},{"bufferView":1,"byteOffset":4740,"componentType":5126,"count":22,"type":"VEC3"},{"bufferView":1,"byteOffset":5004,"componentType":5126,"count":15,"type":"VEC3"},{"bufferView":1,"byteOffset":5184,"componentType":5126,"count":16,"type":"VEC3"},{"bufferView":1,"byteOffset":5376,"componentType":5126,"count":150,"type":"VEC3"},{"bufferView":1,"byteOffset":7176,"componentType":5126,"count":18,"type":"VEC3"},{"bufferView":1,"byteOffset":7392,"componentType":5126,"count":54,"type":"VEC3"},{"bufferView":1,"byteOffset":8040,"componentType":5126,"count":24,"type":"VEC3"},{"bufferView":1,"byteOffset":8328,"componentType":5126,"count":4,"type":"VEC3"},{"bufferView":1,"byteOffset":8376,"componentType":5126,"count":14,"type":"VEC3"},{"bufferView":1,"byteOffset":8544,"componentType":5126,"count":4,"type":"VEC3"},{"bufferView":1,"byteOffset":8592,"componentType":5126,"count":20,"type":"VEC3"},{"bufferView":1,"byteOffset":8832,"componentType":5126,"count":4,"type":"VEC3"},{"bufferView":1,"byteOffset":8880,"componentType":5126,"count":81,"type":"VEC3"},{"bufferView":1,"byteOffset":9852,"componentType":5126,"count":375,"type":"VEC3"},{"bufferView":1,"byteOffset":14352,"componentType":5126,"count":316,"type":"VEC3"},{"bufferView":1,"byteOffset":18144,"componentType":5126,"count":119,"type":"VEC3"},{"bufferView":1,"byteOffset":19572,"componentType":5126,"count":255,"type":"VEC3"},{"bufferView":1,"byteOffset":22632,"componentType":5126,"count":357,"type":"VEC3"},{"bufferView":1,"byteOffset":26916,"componentType":5126,"count":88,"type":"VEC3"},{"bufferView":1,"byteOffset":27972,"componentType":5126,"count":106,"type":"VEC3"},{"bufferView":1,"byteOffset":29244,"componentType":5126,"count":35,"type":"VEC3"},{"bufferView":2,"byteOffset":0,"componentType":5123,"count":156,"type":"SCALAR"},{"bufferView":2,"byteOffset":312,"componentType":5123,"count":156,"type":"SCALAR"},{"bufferView":2,"byteOffset":624,"componentType":5123,"count":156,"type":"SCALAR"},{"bufferView":2,"byteOffset":936,"componentType":5123,"count":156,"type":"SCALAR"},{"bufferView":2,"byteOffset":1248,"componentType":5123,"count":468,"type":"SCALAR"},{"bufferView":2,"byteOffset":2184,"componentType":5123,"count":6,"type":"SCALAR"},{"bufferView":2,"byteOffset":2196,"componentType":5123,"count":6,"type":"SCALAR"},{"bufferView":2,"byteOffset":2208,"componentType":5123,"count":18,"type":"SCALAR"},{"bufferView":2,"byteOffset":2244,"componentType":5123,"count":45,"type":"SCALAR"},{"bufferView":2,"byteOffset":2336,"componentType":5123,"count":60,"type":"SCALAR"},{"bufferView":2,"byteOffset":2456,"componentType":5123,"count":45,"type":"SCALAR"},{"bufferView":2,"byteOffset":2548,"componentType":5123,"count":42,"type":"SCALAR"},{"bufferView":2,"byteOffset":2632,"componentType":5123,"count":468,"type":"SCALAR"},{"bufferView":2,"byteOffset":3568,"componentType":5123,"count":48,"type":"SCALAR"},{"bufferView":2,"byteOffset":3664,"componentType":5123,"count":156,"type":"SCALAR"},{"bufferView":2,"byteOffset":3976,"componentType":5123,"count":66,"type":"SCALAR"},{"bufferView":2,"byteOffset":4108,"componentType":5123,"count":6,"type":"SCALAR"},{"bufferView":2,"byteOffset":4120,"componentType":5123,"count":36,"type":"SCALAR"},{"bufferView":2,"byteOffset":4192,"componentType":5123,"count":6,"type":"SCALAR"},{"bufferView":2,"byteOffset":4204,"componentType":5123,"count":54,"type":"SCALAR"},{"bufferView":2,"byteOffset":4312,"componentType":5123,"count":6,"type":"SCALAR"},{"bufferView":2,"byteOffset":4324,"componentType":5123,"count":411,"type":"SCALAR"},{"bufferView":2,"byteOffset":5148,"componentType":5123,"count":2091,"type":"SCALAR"},{"bufferView":2,"byteOffset":9332,"componentType":5123,"count":1752,"type":"SCALAR"},{"bufferView":2,"byteOffset":12836,"componentType":5123,"count":537,"type":"SCALAR"},{"bufferView":2,"byteOffset":13912,"componentType":5123,"count":1350,"type":"SCALAR"},{"bufferView":2,"byteOffset":16612,"componentType":5123,"count":1944,"type":"SCALAR"},{"bufferView":2,"byteOffset":20500,"componentType":5123,"count":429,"type":"SCALAR"},{"bufferView":2,"byteOffset":21360,"componentType":5123,"count":513,"type":"SCALAR"},{"bufferView":2,"byteOffset":22388,"componentType":5123,"count":141,"type":"SCALAR"}],"asset":{"generator":"Open CASCADE Technology 7.8 [dev.opencascade.org]","version":"2.0"},"bufferViews":[{"buffer":0,"byteLength":29664,"byteOffset":0,"byteStride":12,"target":34962},{"buffer":0,"byteLength":29664,"byteOffset":29664,"byteStride":12,"target":34962},{"buffer":0,"byteLength":22672,"byteOffset":59328,"target":34963}],"buffers":[{"byteLength":82000,"uri":"Lower_Cheek.bin"}],"materials":[{"name":"mat_0","pbrMetallicRoughness":{"baseColorFactor":[0.7991027235984802,0.68668532371521,0.577580451965332,1.0]},"doubleSided":true}],"meshes":[{"name":"Lower Cheek v1","primitives":[{"attributes":{"NORMAL":30,"POSITION":0},"indices":60,"material":0,"mode":4},{"attributes":{"NORMAL":31,"POSITION":1},"indices":61,"material":0,"mode":4},{"attributes":{"NORMAL":32,"POSITION":2},"indices":62,"material":0,"mode":4},{"attributes":{"NORMAL":33,"POSITION":3},"indices":63,"material":0,"mode":4},{"attributes":{"NORMAL":34,"POSITION":4},"indices":64,"material":0,"mode":4},{"attributes":{"NORMAL":35,"POSITION":5},"indices":65,"material":0,"mode":4},{"attributes":{"NORMAL":36,"POSITION":6},"indices":66,"material":0,"mode":4},{"attributes":{"NORMAL":37,"POSITION":7},"indices":67,"material":0,"mode":4},{"attributes":{"NORMAL":38,"POSITION":8},"indices":68,"material":0,"mode":4},{"attributes":{"NORMAL":39,"POSITION":9},"indices":69,"material":0,"mode":4},{"attributes":{"NORMAL":40,"POSITION":10},"indices":70,"material":0,"mode":4},{"attributes":{"NORMAL":41,"POSITION":11},"indices":71,"material":0,"mode":4},{"attributes":{"NORMAL":42,"POSITION":12},"indices":72,"material":0,"mode":4},{"attributes":{"NORMAL":43,"POSITION":13},"indices":73,"material":0,"mode":4},{"attributes":{"NORMAL":44,"POSITION":14},"indices":74,"material":0,"mode":4},{"attributes":{"NORMAL":45,"POSITION":15},"indices":75,"material":0,"mode":4},{"attributes":{"NORMAL":46,"POSITION":16},"indices":76,"material":0,"mode":4},{"attributes":{"NORMAL":47,"POSITION":17},"indices":77,"material":0,"mode":4},{"attributes":{"NORMAL":48,"POSITION":18},"indices":78,"material":0,"mode":4},{"attributes":{"NORMAL":49,"POSITION":19},"indices":79,"material":0,"mode":4},{"attributes":{"NORMAL":50,"POSITION":20},"indices":80,"material":0,"mode":4},{"attributes":{"NORMAL":51,"POSITION":21},"indices":81,"material":0,"mode":4},{"attributes":{"NORMAL":52,"POSITION":22},"indices":82,"material":0,"mode":4},{"attributes":{"NORMAL":53,"POSITION":23},"indices":83,"material":0,"mode":4},{"attributes":{"NORMAL":54,"POSITION":24},"indices":84,"material":0,"mode":4},{"attributes":{"NORMAL":55,"POSITION":25},"indices":85,"material":0,"mode":4},{"attributes":{"NORMAL":56,"POSITION":26},"indices":86,"material":0,"mode":4},{"attributes":{"NORMAL":57,"POSITION":27},"indices":87,"material":0,"mode":4},{"attributes":{"NORMAL":58,"POSITION":28},"indices":88,"material":0,"mode":4},{"attributes":{"NORMAL":59,"POSITION":29},"indices":89,"material":0,"mode":4}]}],"nodes":[{"mesh":0,"name":"Lower Cheek v1"}],"scene":0,"scenes":[{"nodes":[0]}]}