{"accessors":[{"bufferView":0,"byteOffset":0,"componentType":5126,"count":40,"max":[0.0000548844016612969,0.10513223887449201,0.06560903871641899],"min":[-0.0430808976318055,0.0740425530940525,0.06402072982792517],"type":"VEC3"},{"bufferView":0,"byteOffset":480,"componentType":5126,"count":41,"max":[-0.025015568416033102,0.0733744023831661,0.103717462406123],"min":[-0.041144339383545725,0.0472758135363985,0.0789717045607335],"type":"VEC3"},{"bufferView":0,"byteOffset":972,"componentType":5126,"count":65,"max":[-0.00019668248790833003,0.07708427738551571,0.114413470791303],"min":[-0.044768620305553904,0.041659507364643,0.06409416769816499],"type":"VEC3"},{"bufferView":0,"byteOffset":1752,"componentType":5126,"count":55,"max":[-0.026134016534679,0.0752551908559385,0.107270285435117],"min":[-0.044106016471733546,0.0466791291283115,0.08098084847275171],"type":"VEC3"},{"bufferView":0,"byteOffset":2412,"componentType":5126,"count":87,"max":[0.00006202316335714611,0.10513223887449201,0.1153701453674688],"min":[-0.000209126367595974,0.041659507364643,0.06492284879925479],"type":"VEC3"},{"bufferView":0,"byteOffset":3456,"componentType":5126,"count":30,"max":[-0.0000348614059869359,0.0569860393427452,0.114651768194744],"min":[-0.0277157663992535,0.041659507364643,0.105334287166434],"type":"VEC3"},{"bufferView":0,"byteOffset":3816,"componentType":5126,"count":52,"max":[0.00000456928357042034,0.0964034155202441,0.10297364284454101],"min":[-0.0211172247847785,0.080567186153319,0.088550998718224],"type":"VEC3"},{"bufferView":0,"byteOffset":4440,"componentType":5126,"count":236,"max":[0.000006686146945852685,0.0965583379048502,0.1153908073347015],"min":[-0.03484509335414405,0.0533073846886371,0.0863601086783476],"type":"VEC3"},{"bufferView":0,"byteOffset":7272,"componentType":5126,"count":66,"max":[-0.00000781955688953028,0.10009433111480599,0.10494974725893],"min":[-0.0228976597997832,0.0838120711544719,0.0906180572649474],"type":"VEC3"},{"bufferView":0,"byteOffset":8064,"componentType":5126,"count":26,"max":[-0.0309106843520118,0.07963788525771621,0.0832781977487887],"min":[-0.041783625159928305,0.06449040905675661,0.0640927979324987],"type":"VEC3"},{"bufferView":0,"byteOffset":8376,"componentType":5126,"count":47,"max":[-0.0327641314359989,0.0827566122932718,0.0863601086783476],"min":[-0.044768620305553904,0.0658937320891945,0.0644708124627292],"type":"VEC3"},{"bufferView":0,"byteOffset":8940,"componentType":5126,"count":35,"max":[-0.000028181355027801398,0.05759783153547596,0.111178668868668],"min":[-0.0264149342402899,0.0424094143563847,0.102127534483591],"type":"VEC3"},{"bufferView":0,"byteOffset":9360,"componentType":5126,"count":29,"max":[-0.0196384226799773,0.08907336831557279,0.097670222010098],"min":[-0.0327641314359989,0.0752551908559385,0.0817263500725337],"type":"VEC3"},{"bufferView":0,"byteOffset":9708,"componentType":5126,"count":46,"max":[-0.021523802024577498,0.0905977976207057,0.0863601086783476],"min":[-0.0371005257362422,0.0752551908559385,0.06500234621118586],"type":"VEC3"},{"bufferView":0,"byteOffset":10260,"componentType":5126,"count":137,"max":[0.00006202316335714611,0.10513223887449201,0.0924431468992818],"min":[-0.025388322410467602,0.08662956545100214,0.0650032364251427],"type":"VEC3"},{"bufferView":0,"byteOffset":11904,"componentType":5126,"count":163,"max":[0.000006008737921577845,0.0935028938806461,0.11179295087102516],"min":[-0.032718637916344155,0.053976880218120006,0.0832781977487887],"type":"VEC3"},{"bufferView":0,"byteOffset":13860,"componentType":5126,"count":27,"max":[-0.0178537729842071,0.08525722689040281,0.09438079599600291],"min":[-0.0309106843520118,0.0733744023831661,0.07989081608621809],"type":"VEC3"},{"bufferView":0,"byteOffset":14184,"componentType":5126,"count":33,"max":[-0.0199810776467643,0.0885961191672792,0.0832781977487887],"min":[-0.0343367178665322,0.0733744023831661,0.06402072982792517],"type":"VEC3"},{"bufferView":0,"byteOffset":14580,"componentType":5126,"count":88,"max":[0.0000165490039331253,0.101654004747093,0.0919930883699519],"min":[-0.0238987797883347,0.08385233565562039,0.0640329871066657],"type":"VEC3"},{"bufferView":0,"byteOffset":15636,"componentType":5126,"count":40,"max":[0.0430808976318055,0.10513223887449201,0.06560903871641899],"min":[-0.0000548844016612969,0.0740425530940525,0.06402072982792517],"type":"VEC3"},{"bufferView":0,"byteOffset":16116,"componentType":5126,"count":41,"max":[0.041144339383545725,0.0733744023831661,0.103717462406123],"min":[0.025015568416033102,0.0472758135363985,0.0789717045607335],"type":"VEC3"},{"bufferView":0,"byteOffset":16608,"componentType":5126,"count":65,"max":[0.044768620305553904,0.07708427738551571,0.114413470791303],"min":[0.00019668248790833003,0.041659507364643,0.06409416769816499],"type":"VEC3"},{"bufferView":0,"byteOffset":17388,"componentType":5126,"count":55,"max":[0.044106016471733546,0.0752551908559385,0.107270285435117],"min":[0.026134016534679,0.0466791291283115,0.08098084847275171],"type":"VEC3"},{"bufferView":0,"byteOffset":18048,"componentType":5126,"count":87,"max":[0.000209126367595974,0.10513223887449201,0.1153701453674688],"min":[-0.00006202316335714611,0.041659507364643,0.06492284879925479],"type":"VEC3"},{"bufferView":0,"byteOffset":19092,"componentType":5126,"count":30,"max":[0.0277157663992535,0.0569860393427452,0.114651768194744],"min":[0.0000348614059869359,0.041659507364643,0.105334287166434],"type":"VEC3"},{"bufferView":0,"byteOffset":19452,"componentType":5126,"count":50,"max":[0.0211172247847785,0.0964034155202441,0.10297364284454101],"min":[-0.00000456928357042034,0.080567186153319,0.088550998718224],"type":"VEC3"},{"bufferView":0,"byteOffset":20052,"componentType":5126,"count":237,"max":[0.03484509335414405,0.0965583379048502,0.1153908073347015],"min":[-0.000006686146945852685,0.0533073846886371,0.0863601086783476],"type":"VEC3"},{"bufferView":0,"byteOffset":22896,"componentType":5126,"count":66,"max":[0.0228976597997832,0.10009433111480599,0.10494974725893],"min":[0.00000781955688953028,0.0838120711544719,0.0906180572649474],"type":"VEC3"},{"bufferView":0,"byteOffset":23688,"componentType":5126,"count":26,"max":[0.041783625159928305,0.07963788525771621,0.0832781977487887],"min":[0.0309106843520118,0.06449040905675661,0.0640927979324987],"type":"VEC3"},{"bufferView":0,"byteOffset":24000,"componentType":5126,"count":47,"max":[0.044768620305553904,0.0827566122932718,0.0863601086783476],"min":[0.0327641314359989,0.0658937320891945,0.0644708124627292],"type":"VEC3"},{"bufferView":0,"byteOffset":24564,"componentType":5126,"count":35,"max":[0.0264149342402899,0.05759783153547596,0.111178668868668],"min":[0.000028181355027801398,0.0424094143563847,0.102127534483591],"type":"VEC3"},{"bufferView":0,"byteOffset":24984,"componentType":5126,"count":29,"max":[0.0327641314359989,0.08907336831557279,0.097670222010098],"min":[0.0196384226799773,0.0752551908559385,0.0817263500725337],"type":"VEC3"},{"bufferView":0,"byteOffset":25332,"componentType":5126,"count":46,"max":[0.0371005257362422,0.0905977976207057,0.0863601086783476],"min":[0.021523802024577498,0.0752551908559385,0.06500234621118586],"type":"VEC3"},{"bufferView":0,"byteOffset":25884,"componentType":5126,"count":137,"max":[0.025388322410467602,0.10513223887449201,0.0924431468992818],"min":[-0.00006202316335714611,0.08662956545100214,0.0650032364251427],"type":"VEC3"},{"bufferView":0,"byteOffset":27528,"componentType":5126,"count":163,"max":[0.032718637916344155,0.0935028938806461,0.11179295087102516],"min":[-0.000006008737921577845,0.053976880218120006,0.0832781977487887],"type":"VEC3"},{"bufferView":0,"byteOffset":29484,"componentType":5126,"count":27,"max":[0.0309106843520118,0.08525722689040281,0.09438079599600291],"min":[0.0178537729842071,0.0733744023831661,0.07989081608621809],"type":"VEC3"},{"bufferView":0,"byteOffset":29808,"componentType":5126,"count":33,"max":[0.0343367178665322,0.0885961191672792,0.0832781977487887],"min":[0.0199810776467643,0.0733744023831661,0.06402072982792517],"type":"VEC3"},{"bufferView":0,"byteOffset":30204,"componentType":5126,"count":88,"max":[0.0238987797883347,0.101654004747093,0.0919930883699519],"min":[-0.0000165490039331253,0.08385233565562039,0.0640329871066657],"type":"VEC3"},{"bufferView":1,"byteOffset":0,"componentType":5126,"count":40,"type":"VEC3"},{"bufferView":1,"byteOffset":480,"componentType":5126,"count":41,"type":"VEC3"},{"bufferView":1,"byteOffset":972,"componentType":5126,"count":65,"type":"VEC3"},{"bufferView":1,"byteOffset":1752,"componentType":5126,"count":55,"type":"VEC3"},{"bufferView":1,"byteOffset":2412,"componentType":5126,"count":87,"type":"VEC3"},{"bufferView":1,"byteOffset":3456,"componentType":5126,"count":30,"type":"VEC3"},{"bufferView":1,"byteOffset":3816,"componentType":5126,"count":52,"type":"VEC3"},{"bufferView":1,"byteOffset":4440,"componentType":5126,"count":236,"type":"VEC3"},{"bufferView":1,"byteOffset":7272,"componentType":5126,"count":66,"type":"VEC3"},{"bufferView":1,"byteOffset":8064,"componentType":5126,"count":26,"type":"VEC3"},{"bufferView":1,"byteOffset":8376,"componentType":5126,"count":47,"type":"VEC3"},{"bufferView":1,"byteOffset":8940,"componentType":5126,"count":35,"type":"VEC3"},{"bufferView":1,"byteOffset":9360,"componentType":5126,"count":29,"type":"VEC3"},{"bufferView":1,"byteOffset":9708,"componentType":5126,"count":46,"type":"VEC3"},{"bufferView":1,"byteOffset":10260,"componentType":5126,"count":137,"type":"VEC3"},{"bufferView":1,"byteOffset":11904,"componentType":5126,"count":163,"type":"VEC3"},{"bufferView":1,"byteOffset":13860,"componentType":5126,"count":27,"type":"VEC3"},{"bufferView":1,"byteOffset":14184,"componentType":5126,"count":33,"type":"VEC3"},{"bufferView":1,"byteOffset":14580,"componentType":5126,"count":88,"type":"VEC3"},{"bufferView":1,"byteOffset":15636,"componentType":5126,"count":40,"type":"VEC3"},{"bufferView":1,"byteOffset":16116,"componentType":5126,"count":41,"type":"VEC3"},{"bufferView":1,"byteOffset":16608,"componentType":5126,"count":65,"type":"VEC3"},{"bufferView":1,"byteOffset":17388,"componentType":5126,"count":55,"type":"VEC3"},{"bufferView":1,"byteOffset":18048,"componentType":5126,"count":87,"type":"VEC3"},{"bufferView":1,"byteOffset":19092,"componentType":5126,"count":30,"type":"VEC3"},{"bufferView":1,"byteOffset":19452,"componentType":5126,"count":50,"type":"VEC3"},{"bufferView":1,"byteOffset":20052,"componentType":5126,"count":237,"type":"VEC3"},{"bufferView":1,"byteOffset":22896,"componentType":5126,"count":66,"type":"VEC3"},{"bufferView":1,"byteOffset":23688,"componentType":5126,"count":26,"type":"VEC3"},{"bufferView":1,"byteOffset":24000,"componentType":5126,"count":47,"type":"VEC3"},{"bufferView":1,"byteOffset":24564,"componentType":5126,"count":35,"type":"VEC3"},{"bufferView":1,"byteOffset":24984,"componentType":5126,"count":29,"type":"VEC3"},{"bufferView":1,"byteOffset":25332,"componentType":5126,"count":46,"type":"VEC3"},{"bufferView":1,"byteOffset":25884,"componentType":5126,"count":137,"type":"VEC3"},{"bufferView":1,"byteOffset":27528,"componentType":5126,"count":163,"type":"VEC3"},{"bufferView":1,"byteOffset":29484,"componentType":5126,"count":27,"type":"VEC3"},{"bufferView":1,"byteOffset":29808,"componentType":5126,"count":33,"type":"VEC3"},{"bufferView":1,"byteOffset":30204,"componentType":5126,"count":88,"type":"VEC3"},{"bufferView":2,"byteOffset":0,"componentType":5123,"count":162,"type":"SCALAR"},{"bufferView":2,"byteOffset":324,"componentType":5123,"count":171,"type":"SCALAR"},{"bufferView":2,"byteOffset":668,"componentType":5123,"count":231,"type":"SCALAR"},{"bufferView":2,"byteOffset":1132,"componentType":5123,"count":246,"type":"SCALAR"},{"bufferView":2,"byteOffset":1624,"componentType":5123,"count":357,"type":"SCALAR"},{"bufferView":2,"byteOffset":2340,"componentType":5123,"count":129,"type":"SCALAR"},{"bufferView":2,"byteOffset":2600,"componentType":5123,"count":246,"type":"SCALAR"},{"bufferView":2,"byteOffset":3092,"componentType":5123,"count":1296,"type":"SCALAR"},{"bufferView":2,"byteOffset":5684,"componentType":5123,"count":324,"type":"SCALAR"},{"bufferView":2,"byteOffset":6332,"componentType":5123,"count":102,"type":"SCALAR"},{"bufferView":2,"byteOffset":6536,"componentType":5123,"count":216,"type":"SCALAR"},{"bufferView":2,"byteOffset":6968,"componentType":5123,"count":159,"type":"SCALAR"},{"bufferView":2,"byteOffset":7288,"componentType":5123,"count":123,"type":"SCALAR"},{"bufferView":2,"byteOffset":7536,"componentType":5123,"count":216,"type":"SCALAR"},{"bufferView":2,"byteOffset":7968,"componentType":5123,"count":717,"type":"SCALAR"},{"bufferView":2,"byteOffset":9404,"componentType":5123,"count":864,"type":"SCALAR"},{"bufferView":2,"byteOffset":11132,"componentType":5123,"count":117,"type":"SCALAR"},{"bufferView":2,"byteOffset":11368,"componentType":5123,"count":141,"type":"SCALAR"},{"bufferView":2,"byteOffset":11652,"componentType":5123,"count":435,"type":"SCALAR"},{"bufferView":2,"byteOffset":12524,"componentType":5123,"count":162,"type":"SCALAR"},{"bufferView":2,"byteOffset":12848,"componentType":5123,"count":171,"type":"SCALAR"},{"bufferView":2,"byteOffset":13192,"componentType":5123,"count":231,"type":"SCALAR"},{"bufferView":2,"byteOffset":13656,"componentType":5123,"count":246,"type":"SCALAR"},{"bufferView":2,"byteOffset":14148,"componentType":5123,"count":357,"type":"SCALAR"},{"bufferView":2,"byteOffset":14864,"componentType":5123,"count":129,"type":"SCALAR"},{"bufferView":2,"byteOffset":15124,"componentType":5123,"count":234,"type":"SCALAR"},{"bufferView":2,"byteOffset":15592,"componentType":5123,"count":1302,"type":"SCALAR"},{"bufferView":2,"byteOffset":18196,"componentType":5123,"count":324,"type":"SCALAR"},{"bufferView":2,"byteOffset":18844,"componentType":5123,"count":102,"type":"SCALAR"},{"bufferView":2,"byteOffset":19048,"componentType":5123,"count":216,"type":"SCALAR"},{"bufferView":2,"byteOffset":19480,"componentType":5123,"count":159,"type":"SCALAR"},{"bufferView":2,"byteOffset":19800,"componentType":5123,"count":123,"type":"SCALAR"},{"bufferView":2,"byteOffset":20048,"componentType":5123,"count":216,"type":"SCALAR"},{"bufferView":2,"byteOffset":20480,"componentType":5123,"count":717,"type":"SCALAR"},{"bufferView":2,"byteOffset":21916,"componentType":5123,"count":864,"type":"SCALAR"},{"bufferView":2,"byteOffset":23644,"componentType":5123,"count":117,"type":"SCALAR"},{"bufferView":2,"byteOffset":23880,"componentType":5123,"count":141,"type":"SCALAR"},{"bufferView":2,"byteOffset":24164,"componentType":5123,"count":435,"type":"SCALAR"}],"asset":{"generator":"Open CASCADE Technology 7.8 [dev.opencascade.org]","version":"2.0"},"bufferViews":[{"buffer":0,"byteLength":31260,"byteOffset":0,"byteStride":12,"target":34962},{"buffer":0,"byteLength":31260,"byteOffset":31260,"byteStride":12,"target":34962},{"buffer":0,"byteLength":25036,"byteOffset":62520,"target":34963}],"buffers":[{"byteLength":87556,"uri":"Mouth.bin"}],"materials":[{"name":"mat_0","pbrMetallicRoughness":{"baseColorFactor":[0.8148465752601624,0.693871796131134,0.5332763195037842,1.0]},"doubleSided":true}],"meshes":[{"name":"Mouth","primitives":[{"attributes":{"NORMAL":38,"POSITION":0},"indices":76,"material":0,"mode":4},{"attributes":{"NORMAL":39,"POSITION":1},"indices":77,"material":0,"mode":4},{"attributes":{"NORMAL":40,"POSITION":2},"indices":78,"material":0,"mode":4},{"attributes":{"NORMAL":41,"POSITION":3},"indices":79,"material":0,"mode":4},{"attributes":{"NORMAL":42,"POSITION":4},"indices":80,"material":0,"mode":4},{"attributes":{"NORMAL":43,"POSITION":5},"indices":81,"material":0,"mode":4},{"attributes":{"NORMAL":44,"POSITION":6},"indices":82,"material":0,"mode":4},{"attributes":{"NORMAL":45,"POSITION":7},"indices":83,"material":0,"mode":4},{"attributes":{"NORMAL":46,"POSITION":8},"indices":84,"material":0,"mode":4},{"attributes":{"NORMAL":47,"POSITION":9},"indices":85,"material":0,"mode":4},{"attributes":{"NORMAL":48,"POSITION":10},"indices":86,"material":0,"mode":4},{"attributes":{"NORMAL":49,"POSITION":11},"indices":87,"material":0,"mode":4},{"attributes":{"NORMAL":50,"POSITION":12},"indices":88,"material":0,"mode":4},{"attributes":{"NORMAL":51,"POSITION":13},"indices":89,"material":0,"mode":4},{"attributes":{"NORMAL":52,"POSITION":14},"indices":90,"material":0,"mode":4},{"attributes":{"NORMAL":53,"POSITION":15},"indices":91,"material":0,"mode":4},{"attributes":{"NORMAL":54,"POSITION":16},"indices":92,"material":0,"mode":4},{"attributes":{"NORMAL":55,"POSITION":17},"indices":93,"material":0,"mode":4},{"attributes":{"NORMAL":56,"POSITION":18},"indices":94,"material":0,"mode":4},{"attributes":{"NORMAL":57,"POSITION":19},"indices":95,"material":0,"mode":4},{"attributes":{"NORMAL":58,"POSITION":20},"indices":96,"material":0,"mode":4},{"attributes":{"NORMAL":59,"POSITION":21},"indices":97,"material":0,"mode":4},{"attributes":{"NORMAL":60,"POSITION":22},"indices":98,"material":0,"mode":4},{"attributes":{"NORMAL":61,"POSITION":23},"indices":99,"material":0,"mode":4},{"attributes":{"NORMAL":62,"POSITION":24},"indices":100,"material":0,"mode":4},{"attributes":{"NORMAL":63,"POSITION":25},"indices":101,"material":0,"mode":4},{"attributes":{"NORMAL":64,"POSITION":26},"indices":102,"material":0,"mode":4},{"attributes":{"NORMAL":65,"POSITION":27},"indices":103,"material":0,"mode":4},{"attributes":{"NORMAL":66,"POSITION":28},"indices":104,"material":0,"mode":4},{"attributes":{"NORMAL":67,"POSITION":29},"indices":105,"material":0,"mode":4},{"attributes":{"NORMAL":68,"POSITION":30},"indices":106,"material":0,"mode":4},{"attributes":{"NORMAL":69,"POSITION":31},"indices":107,"material":0,"mode":4},{"attributes":{"NORMAL":70,"POSITION":32},"indices":108,"material":0,"mode":4},{"attributes":{"NORMAL":71,"POSITION":33},"indices":109,"material":0,"mode":4},{"attributes":{"NORMAL":72,"POSITION":34},"indices":110,"material":0,"mode":4},{"attributes":{"NORMAL":73,"POSITION":35},"indices":111,"material":0,"mode":4},{"attributes":{"NORMAL":74,"POSITION":36},"indices":112,"material":0,"mode":4},{"attributes":{"NORMAL":75,"POSITION":37},"indices":113,"material":0,"mode":4}]}],"nodes":[{"mesh":0,"name":"Mouth"}],"scene":0,"scenes":[{"nodes":[0]}]}